<?xml version="1.0" standalone="no"?>
<!DOCTYPE svg PUBLIC "-//W3C//DTD SVG 20010904//EN"
 "http://www.w3.org/TR/2001/REC-SVG-20010904/DTD/svg10.dtd">
<svg version="1.0" xmlns="http://www.w3.org/2000/svg"
 width="1200.000000pt" height="1129.000000pt" viewBox="0 0 1200.000000 1129.000000"
 preserveAspectRatio="xMidYMid meet">

<g transform="translate(0.000000,1129.000000) scale(0.100000,-0.100000)"
fill="#000000" stroke="none">
<path d="M6030 11272 c0 -13 9 -22 25 -26 14 -4 30 -17 36 -30 13 -28 -15
-618 -30 -660 -6 -14 -22 -31 -36 -38 -14 -6 -25 -19 -25 -29 0 -15 16 -18
128 -24 70 -3 139 -8 155 -11 22 -5 27 -2 27 14 0 10 -11 24 -25 30 -40 19
-46 50 -37 203 4 76 11 141 14 144 3 3 17 3 32 -1 20 -5 40 -31 89 -118 112
-194 125 -230 92 -242 -25 -10 -17 -32 13 -38 15 -3 89 -8 165 -11 118 -6 137
-5 137 8 0 8 -15 24 -34 35 -18 11 -47 40 -63 63 -43 63 -213 364 -213 377 0
16 252 253 288 270 18 9 32 23 32 34 0 15 -9 18 -52 19 -29 1 -97 4 -151 8
-87 5 -97 4 -97 -11 0 -9 9 -19 19 -23 54 -17 30 -83 -67 -190 -86 -94 -127
-125 -164 -125 -28 0 -28 0 -23 58 3 31 8 97 11 145 6 91 23 127 59 127 8 0
15 9 15 19 0 17 -11 20 -102 25 -57 4 -129 9 -160 12 -53 5 -58 4 -58 -14z"/>
<path d="M4653 11161 c-150 -55 -227 -160 -239 -330 -12 -150 61 -360 152
-440 63 -56 127 -75 223 -68 94 7 138 20 187 53 34 24 42 25 70 15 26 -10 38
-9 68 6 20 9 36 20 36 24 0 4 -11 55 -25 113 -31 133 -33 191 -5 206 20 11 27
35 12 44 -4 2 -70 -10 -147 -28 -109 -25 -141 -36 -143 -49 -2 -12 6 -21 26
-28 33 -11 50 -44 71 -135 10 -42 10 -57 -2 -86 -14 -34 -65 -68 -102 -68 -35
0 -78 34 -115 92 -50 76 -75 143 -96 255 -40 212 15 348 146 361 58 5 102 -15
133 -64 21 -33 25 -35 62 -29 21 3 41 7 42 9 2 2 -5 38 -15 82 l-18 79 -134 2
c-111 2 -144 -1 -187 -16z"/>
<path d="M7200 11162 c0 -11 9 -27 20 -37 11 -10 20 -28 20 -39 0 -12 -29
-129 -65 -261 -74 -271 -80 -331 -42 -405 47 -94 192 -165 337 -165 98 1 142
22 192 96 32 46 46 87 98 284 72 275 79 293 120 302 17 3 35 14 40 23 9 16 -3
21 -108 50 -64 18 -122 35 -128 37 -22 8 -25 -30 -4 -52 11 -12 20 -34 20 -48
0 -39 -107 -462 -131 -518 -31 -72 -60 -94 -122 -93 -97 1 -147 49 -147 141 0
41 103 468 132 546 7 17 24 33 45 42 20 8 33 20 31 27 -4 12 -249 85 -290 87
-11 1 -18 -6 -18 -17z"/>
<path d="M3793 10878 c-103 -36 -112 -42 -102 -59 6 -12 20 -19 39 -19 38 0
43 -8 125 -200 37 -85 80 -181 96 -212 37 -73 36 -79 -3 -42 -18 17 -53 46
-78 65 -46 36 -396 289 -416 302 -7 4 -62 -16 -122 -45 -98 -45 -110 -53 -101
-69 5 -11 16 -16 24 -13 23 9 63 -22 86 -68 38 -74 249 -560 249 -573 0 -7 -9
-23 -19 -37 -24 -29 -14 -53 18 -43 12 3 59 24 106 46 63 29 83 42 79 54 -4 8
-18 15 -34 15 -15 0 -37 8 -48 18 -12 9 -50 85 -86 167 -35 83 -83 190 -105
238 -23 49 -41 91 -41 94 0 2 12 -5 28 -16 15 -12 133 -99 262 -193 129 -94
249 -182 265 -194 l30 -22 68 30 c37 17 67 34 67 38 0 4 -65 152 -145 330 -80
178 -145 335 -145 349 0 14 9 34 20 46 16 17 18 24 7 37 -11 15 -23 13 -124
-24z"/>
<path d="M8355 10803 c-3 -10 2 -32 12 -51 l18 -33 -135 -266 c-159 -313 -176
-340 -222 -345 -62 -6 -45 -30 58 -81 106 -53 133 -52 101 2 -9 16 -17 34 -17
39 0 6 49 111 109 234 59 122 112 234 116 247 12 39 25 4 25 -69 0 -79 30
-610 35 -627 4 -11 115 -73 130 -73 3 0 78 145 166 322 88 178 168 331 177
341 10 11 25 17 40 14 15 -3 26 2 33 14 8 16 -1 24 -73 61 -46 24 -88 44 -94
46 -19 5 -26 -30 -9 -48 8 -9 15 -22 15 -28 0 -6 -33 -78 -73 -159 -40 -81
-90 -186 -112 -233 l-40 -85 -2 55 c-7 153 -24 465 -30 543 l-6 88 -108 54
c-92 47 -108 52 -114 38z"/>
<path d="M2610 10229 c-124 -88 -232 -164 -240 -168 -22 -14 7 -44 36 -37 12
3 30 3 38 0 13 -5 163 -218 360 -508 28 -41 34 -84 14 -104 -10 -10 -9 -15 2
-27 16 -14 47 5 402 257 l98 69 -51 82 c-28 45 -54 86 -58 90 -13 13 -72 -26
-64 -43 3 -8 8 -44 10 -80 4 -58 2 -68 -19 -90 -40 -42 -139 -105 -146 -94 -4
6 -44 63 -89 127 -46 64 -83 120 -83 126 0 13 80 71 98 71 8 0 29 -9 46 -20
31 -18 33 -18 59 -1 l27 18 -70 101 -71 102 -25 -17 c-23 -15 -25 -21 -20 -56
6 -38 4 -42 -40 -83 -26 -24 -52 -44 -58 -44 -6 0 -21 15 -32 33 -12 17 -49
71 -83 118 l-60 86 76 52 c43 29 87 51 102 51 14 0 45 -11 69 -25 41 -23 43
-23 72 -7 16 9 30 21 30 25 0 7 -98 157 -103 157 -1 0 -103 -73 -227 -161z"/>
<path d="M9377 10094 c-123 -39 -239 -150 -314 -301 -41 -82 -46 -99 -46 -160
0 -84 24 -143 84 -208 50 -55 115 -94 178 -111 41 -10 46 -15 49 -41 2 -23 11
-34 38 -46 19 -10 36 -17 38 -17 1 0 41 48 87 106 90 113 102 124 146 124 61
0 55 20 -25 84 -161 129 -161 129 -177 116 -13 -10 -13 -16 1 -41 17 -33 12
-47 -39 -114 -66 -87 -111 -104 -174 -65 -46 27 -56 54 -51 124 14 175 260
447 403 446 46 -1 108 -33 144 -76 34 -40 36 -60 15 -145 -5 -21 0 -30 24 -48
l30 -21 51 66 51 66 -29 37 c-59 74 -184 183 -237 208 -70 32 -179 39 -247 17z"/>
<path d="M1885 9630 c-92 -94 -106 -112 -95 -125 9 -11 16 -13 24 -5 28 28 61
10 164 -88 l104 -97 -101 -100 -101 -100 -95 95 c-99 98 -114 124 -96 158 8
15 7 23 -2 31 -10 8 -39 -16 -121 -98 -102 -103 -125 -142 -74 -126 45 15 76
-10 306 -238 224 -223 233 -233 227 -264 -11 -61 15 -47 126 63 78 78 105 111
98 120 -7 9 -17 9 -39 1 -25 -9 -33 -7 -67 18 -21 16 -76 66 -123 111 l-84 82
71 78 c39 44 83 90 97 104 l27 24 105 -104 c58 -58 110 -113 115 -122 6 -10 5
-27 -1 -44 -8 -19 -8 -30 1 -38 8 -8 39 18 115 98 58 60 103 114 101 120 -2 6
-25 11 -50 11 l-46 0 -221 209 c-122 115 -228 219 -237 232 -12 18 -13 30 -5
53 8 22 7 32 -2 40 -9 8 -40 -17 -121 -99z"/>
<path d="M5864 9624 c-176 -74 -525 -248 -659 -329 -324 -196 -458 -328 -535
-528 -48 -123 -63 -206 -63 -357 0 -329 135 -674 421 -1074 85 -120 90 -135
40 -136 -10 0 -51 -11 -92 -24 l-74 -23 -28 51 c-15 28 -66 114 -112 191 -356
588 -703 931 -960 947 l-47 3 1 -105 c1 -122 28 -218 99 -360 119 -236 385
-560 654 -795 51 -45 80 -78 80 -91 1 -18 -15 -109 -35 -202 -4 -21 -21 -8
-157 124 -408 396 -770 652 -1027 724 -92 25 -238 28 -324 5 -141 -37 -309
-130 -460 -255 -99 -81 -262 -251 -391 -405 -60 -71 -153 -174 -207 -227 l-97
-98 24 -93 c21 -85 39 -185 90 -506 47 -297 169 -606 306 -779 147 -185 323
-251 672 -252 292 0 658 54 1126 166 79 19 146 34 150 34 7 0 -40 -272 -52
-305 -5 -11 -21 -15 -64 -15 -88 0 -377 -27 -536 -50 -463 -67 -824 -200
-1012 -372 -74 -68 -126 -145 -129 -190 -1 -28 4 -35 40 -55 23 -13 77 -32
119 -43 98 -25 301 -27 431 -5 283 49 611 172 963 359 68 37 126 64 129 61 5
-5 -36 -254 -48 -288 -4 -13 -60 -40 -176 -86 -487 -195 -776 -350 -897 -481
-105 -113 -151 -245 -150 -430 2 -224 63 -419 240 -767 125 -246 231 -469 273
-578 13 -33 27 -64 31 -68 4 -5 58 -13 120 -18 63 -6 211 -28 329 -49 622
-114 976 -105 1256 30 218 105 343 318 385 654 14 116 6 403 -15 536 -7 47
-11 87 -9 90 7 7 142 19 237 19 73 1 87 -2 83 -13 -8 -21 -44 -225 -59 -336
-18 -140 -16 -483 5 -597 35 -194 107 -364 198 -467 l43 -49 39 44 c74 84 141
221 177 362 35 139 43 239 37 467 -5 209 -17 317 -56 504 l-19 89 142 -7 c167
-8 188 -12 181 -35 -14 -46 -35 -294 -35 -421 0 -306 64 -533 194 -691 158
-192 453 -273 900 -248 199 11 282 21 526 64 180 32 276 46 420 60 l55 6 24
62 c42 108 149 336 251 533 157 302 225 486 255 684 48 312 -43 532 -285 691
-148 98 -495 262 -800 379 l-124 48 -28 152 c-16 84 -27 155 -24 157 2 2 73
-32 157 -76 363 -189 653 -296 924 -343 159 -27 388 -22 478 10 68 25 137 62
137 74 0 26 -60 120 -108 171 -219 229 -699 384 -1362 441 -102 9 -207 17
-235 18 l-50 3 -28 154 c-15 84 -26 155 -24 158 3 2 87 -16 188 -41 465 -114
818 -161 1137 -154 212 5 296 20 407 73 263 125 459 511 540 1063 27 182 69
394 90 454 l13 38 -70 73 c-38 39 -134 149 -212 242 -264 314 -463 488 -688
601 -195 98 -358 112 -548 46 -253 -88 -599 -342 -1016 -745 l-112 -107 -21
114 -21 115 208 208 c274 273 420 459 528 674 79 158 123 334 108 430 l-7 40
-51 -6 c-117 -16 -244 -83 -370 -196 -204 -182 -432 -483 -651 -857 -67 -115
-81 -133 -99 -129 -12 3 -60 15 -108 28 l-88 22 35 46 c322 422 485 805 485
1141 0 313 -117 550 -363 735 -170 127 -605 358 -993 525 l-41 18 -129 -54z
m223 -1114 c34 -6 82 -19 107 -30 53 -22 129 -94 124 -118 -4 -22 -95 -66
-171 -83 -98 -22 -248 -17 -337 10 -41 12 -92 32 -112 44 l-37 20 17 30 c60
102 232 156 409 127z m-303 -344 c17 -6 18 -14 13 -69 -3 -34 -25 -308 -48
-609 -34 -434 -46 -548 -57 -548 -7 0 -47 16 -88 34 -66 31 -74 38 -70 58 3
13 30 280 61 593 31 314 58 575 60 582 3 9 19 6 57 -11 29 -13 62 -26 72 -30z
m556 42 c0 -7 27 -276 60 -598 33 -322 60 -589 60 -593 0 -8 -106 -60 -147
-72 -28 -8 -23 -43 -73 605 -22 289 -43 545 -46 570 l-5 46 63 26 c74 30 88
32 88 16z m-266 -100 c3 -18 26 -294 51 -613 31 -404 41 -581 34 -586 -32 -20
-291 -20 -325 0 -7 4 5 193 37 601 27 327 48 603 48 613 1 15 11 17 76 17 l74
0 5 -32z m-744 -1131 c251 -226 694 -297 1054 -166 103 37 214 102 288 168
l56 51 89 -15 c100 -18 188 -44 286 -88 l68 -30 -33 -35 c-56 -59 -181 -146
-284 -199 -244 -126 -550 -195 -854 -195 -434 0 -872 145 -1110 369 l-63 59
72 32 c79 36 189 68 296 87 39 7 72 14 73 14 2 1 30 -23 62 -52z m-503 -330
c172 -138 376 -234 637 -298 487 -119 977 -78 1384 116 120 58 257 142 335
207 27 22 51 37 54 34 7 -6 663 -3578 663 -3607 0 -13 -16 -10 -102 18 -245
80 -581 162 -853 207 -347 57 -612 79 -985 79 -614 0 -1144 -82 -1693 -260
-93 -30 -172 -53 -176 -51 -6 2 649 3618 656 3618 1 0 37 -28 80 -63z"/>
<path d="M6710 5993 c-148 -32 -420 -37 -538 -10 -158 37 -226 10 -226 -88 0
-44 17 -75 57 -102 42 -29 96 -40 241 -48 107 -6 121 -10 143 -31 18 -18 22
-30 17 -51 -16 -65 -54 -82 -207 -93 -172 -12 -216 -33 -219 -104 -3 -74 41
-92 247 -106 208 -14 251 -32 279 -118 19 -59 37 -169 31 -196 -2 -12 -6 -33
-9 -48 -9 -42 -53 -86 -98 -99 -78 -21 -119 19 -133 131 -14 104 -40 140 -104
140 -46 0 -68 -29 -76 -97 -17 -144 -41 -183 -115 -183 -70 0 -84 20 -91 135
-8 131 -22 151 -129 192 -124 47 -213 96 -229 124 -22 39 -7 71 68 153 75 80
98 132 85 189 -22 102 -293 246 -551 293 -159 29 -253 1 -282 -82 -12 -34 -12
-44 0 -69 20 -41 63 -63 201 -102 190 -53 258 -96 258 -160 0 -28 -12 -47 -70
-108 -64 -67 -70 -78 -70 -116 0 -36 6 -48 39 -79 21 -20 102 -69 180 -109
146 -76 193 -114 184 -151 -10 -40 -47 -54 -116 -45 -34 5 -94 9 -134 9 -66 1
-74 -1 -101 -27 -17 -16 -33 -45 -37 -64 -10 -56 -35 -73 -107 -73 -72 0 -140
26 -158 60 -16 30 8 64 69 95 83 41 116 109 73 148 -42 38 -215 76 -362 79
-68 2 -91 -2 -117 -17 -63 -37 -66 -101 -8 -142 70 -48 105 -86 105 -113 0
-38 -33 -76 -91 -105 -27 -14 -56 -36 -64 -48 -28 -43 3 -115 58 -136 12 -5
103 -14 202 -21 207 -14 235 -23 235 -74 0 -49 -61 -163 -126 -235 -32 -35
-92 -87 -134 -117 -95 -66 -104 -77 -96 -110 17 -66 157 -68 262 -2 117 72
246 224 358 423 67 117 96 145 148 145 112 0 78 -152 -86 -389 -113 -164 -196
-236 -396 -346 -58 -31 -113 -64 -122 -73 -24 -20 -23 -57 2 -82 68 -68 264
-22 462 110 232 153 420 378 514 616 63 158 131 214 183 148 56 -71 -11 -259
-190 -534 -94 -146 -108 -190 -71 -223 54 -49 151 1 242 124 117 158 179 283
245 494 34 108 53 145 76 145 24 0 52 -24 65 -55 29 -69 14 -161 -67 -435 -22
-74 -43 -165 -46 -201 -5 -64 -5 -68 20 -84 116 -75 261 199 316 598 11 76 25
144 31 152 7 8 28 15 46 15 29 0 36 -5 52 -37 25 -49 29 -72 48 -292 28 -334
78 -444 202 -445 44 -1 46 0 55 34 9 35 4 109 -28 370 -32 266 -9 385 76 385
49 0 73 -49 99 -205 31 -185 74 -331 133 -444 85 -163 176 -238 256 -210 44
16 40 69 -17 225 -104 281 -122 364 -132 614 -8 205 -17 244 -68 299 -15 16
-47 38 -71 48 -40 19 -57 20 -198 13 -166 -8 -183 -4 -183 42 0 37 39 65 141
102 199 72 259 118 259 200 0 26 -5 52 -12 59 -19 19 -72 14 -145 -14 -178
-69 -206 -76 -267 -72 -46 4 -63 9 -77 27 -11 13 -19 28 -19 33 0 24 61 67
125 88 167 55 245 116 245 193 0 24 -5 48 -12 55 -19 19 -89 14 -210 -13 -129
-29 -175 -31 -206 -9 -17 12 -22 24 -20 47 3 30 11 36 122 92 120 61 145 83
146 133 0 30 -25 78 -45 86 -29 11 -98 4 -215 -21z"/>
<path d="M10623 9089 c-6 -6 -9 -26 -6 -44 6 -40 1 -46 -182 -178 -279 -201
-282 -204 -311 -263 -48 -99 -21 -210 83 -338 91 -112 197 -146 305 -98 25 11
132 81 237 156 237 169 239 169 276 150 24 -12 31 -12 42 -1 11 11 1 31 -63
121 -56 80 -79 105 -87 97 -6 -6 -10 -26 -9 -44 2 -24 -3 -38 -20 -53 -42 -38
-431 -306 -465 -320 -108 -45 -211 37 -204 162 2 42 93 124 284 257 238 166
230 162 267 144 24 -13 31 -13 40 -2 9 11 -9 42 -80 139 -50 69 -92 126 -94
126 -1 0 -7 -5 -13 -11z"/>
<path d="M1131 8775 c-56 -61 -116 -155 -142 -224 -28 -74 -23 -185 11 -253
72 -146 286 -287 446 -296 96 -5 156 20 229 99 53 58 155 240 155 278 0 11
-27 36 -70 65 -38 25 -72 46 -74 46 -2 0 -13 -14 -24 -31 l-20 -32 30 -41 c64
-91 17 -212 -89 -232 -159 -30 -513 236 -513 384 0 50 25 99 62 122 32 20 49
21 131 8 10 -2 25 9 37 28 l20 31 -70 47 c-38 25 -71 46 -74 46 -2 0 -22 -20
-45 -45z"/>
<path d="M11276 8088 c-19 -71 -20 -73 -103 -114 -46 -22 -184 -87 -309 -144
l-227 -103 -34 18 c-59 32 -62 9 -12 -100 24 -53 47 -99 52 -102 15 -9 37 19
37 48 0 36 23 52 170 119 63 29 162 74 219 101 57 27 108 49 113 49 5 0 -11
-26 -35 -57 -24 -32 -119 -163 -210 -291 -148 -207 -165 -235 -157 -257 9 -23
49 -107 55 -113 2 -2 148 62 327 142 328 148 380 165 408 132 13 -17 40 -10
40 9 0 7 -13 44 -29 81 -16 38 -36 86 -44 106 -18 42 -47 44 -47 3 0 -42 -34
-64 -225 -151 -104 -48 -199 -93 -210 -100 -48 -34 -40 -7 23 74 70 90 289
391 312 428 11 18 6 34 -35 127 -44 98 -70 129 -79 95z"/>
<path d="M942 7213 c-6 -20 -10 -38 -9 -38 97 -62 127 -96 127 -142 0 -35 -41
-153 -53 -153 -18 0 -573 183 -608 201 -37 18 -49 35 -49 69 0 18 -26 35 -34
22 -2 -4 -22 -68 -45 -143 -22 -75 -43 -143 -46 -151 -11 -27 31 -28 54 -2 12
13 31 24 42 24 41 0 604 -189 627 -210 12 -11 22 -31 22 -44 0 -20 26 -44 35
-34 13 14 175 542 168 548 -4 5 -48 24 -98 43 -49 19 -97 38 -106 41 -11 5
-18 -3 -27 -31z"/>
<path d="M11707 6994 c-4 -4 -7 -17 -7 -29 0 -42 12 -38 -388 -145 -145 -38
-272 -70 -282 -70 -10 0 -27 11 -37 25 -13 18 -22 22 -32 16 -13 -8 -9 -32 25
-158 28 -107 43 -148 54 -148 9 0 16 11 18 28 3 22 13 32 45 48 47 22 587 169
622 169 12 0 30 -9 40 -20 20 -22 55 -27 55 -7 0 6 -18 75 -39 152 -36 132
-52 161 -74 139z"/>
<path d="M883 6355 c-12 -33 -75 -48 -434 -104 -203 -32 -374 -62 -379 -67 -5
-5 -10 -42 -12 -82 l-3 -73 343 -183 c189 -101 349 -189 356 -196 8 -6 22 -26
31 -45 20 -44 42 -45 50 -2 6 40 25 197 25 214 0 22 -27 14 -44 -12 -22 -34
-65 -33 -145 5 -55 26 -62 33 -58 53 3 12 11 70 18 129 l12 107 51 6 c28 4 69
5 91 3 34 -3 42 -8 54 -36 9 -20 21 -32 30 -30 12 2 19 34 32 133 10 72 20
145 23 163 4 27 2 32 -15 32 -11 0 -22 -7 -26 -15z m-316 -297 c-4 -18 -9 -62
-12 -98 -4 -36 -8 -71 -11 -78 -3 -10 -52 11 -164 69 -88 46 -158 85 -155 87
5 5 287 49 324 51 21 1 23 -2 18 -31z"/>
<path d="M11876 6286 c-8 -19 -25 -40 -38 -47 -12 -8 -176 -77 -363 -154
l-340 -140 0 -67 c0 -36 3 -69 7 -73 3 -3 163 -47 354 -96 402 -103 431 -113
453 -151 15 -27 35 -36 44 -20 5 7 -10 188 -19 230 -6 30 -30 28 -38 -3 -10
-39 -49 -59 -104 -52 -47 6 -470 121 -480 131 -2 3 6 10 19 15 13 5 105 41
204 81 276 111 315 118 335 65 6 -16 15 -23 25 -19 18 7 18 12 0 189 -8 77
-15 141 -15 143 0 1 -7 2 -15 2 -8 0 -21 -15 -29 -34z"/>
<path d="M3 5228 c4 -46 7 -98 7 -115 0 -26 4 -33 20 -33 11 0 20 6 20 14 0 8
8 24 18 36 16 20 32 22 232 35 118 8 232 17 253 21 49 8 47 -7 -7 -37 -24 -13
-150 -94 -280 -179 l-236 -155 0 -46 c0 -25 3 -80 6 -122 6 -65 10 -77 25 -77
10 0 21 9 24 20 14 43 38 48 360 66 171 10 322 15 336 11 14 -4 31 -18 37 -32
6 -14 18 -25 27 -25 17 0 19 47 8 163 -7 76 -25 89 -55 38 -20 -35 -29 -37
-288 -51 -102 -6 -207 -13 -235 -16 -43 -4 -47 -3 -31 8 10 7 147 98 305 201
l286 188 -4 72 c-2 40 -5 74 -7 76 -2 3 -158 -5 -347 -18 -432 -27 -404 -28
-425 9 -9 17 -25 30 -36 30 -18 0 -19 -6 -13 -82z"/>
<path d="M11186 5153 c-3 -27 -15 -158 -27 -292 -15 -177 -18 -246 -10 -251 6
-3 53 -12 103 -19 100 -13 108 -10 108 40 0 21 -9 30 -51 49 -71 34 -89 60
-89 129 0 31 3 73 7 94 l6 39 108 -7 c60 -4 132 -10 161 -14 l52 -6 -3 -50
c-4 -66 -14 -82 -61 -96 -36 -11 -40 -15 -40 -45 l0 -32 93 -6 c50 -4 104 -9
120 -12 26 -5 27 -4 27 33 0 35 -4 41 -35 56 -39 19 -50 47 -42 108 3 23 7 42
9 44 6 5 278 -21 284 -28 11 -11 -15 -178 -30 -203 -9 -12 -38 -30 -66 -39
-48 -16 -50 -18 -50 -55 l0 -39 58 -6 c31 -3 73 -8 93 -11 l36 -5 26 248 c28
253 32 334 20 347 -4 3 -19 -7 -34 -24 -34 -37 -34 -37 -354 -10 -342 29 -322
25 -367 71 -21 21 -40 39 -42 39 -2 0 -7 -21 -10 -47z"/>
<path d="M11066 4273 c-58 -200 -77 -287 -64 -294 20 -13 30 -11 56 13 l23 23
127 -33 c70 -18 130 -36 134 -40 12 -13 -4 -61 -28 -86 -26 -25 -30 -26 -189
-55 -55 -10 -119 -24 -141 -30 l-42 -11 -26 -105 c-14 -57 -26 -109 -26 -115
0 -15 37 -12 43 4 10 25 62 45 160 61 110 18 161 36 199 73 15 14 30 23 34 20
3 -4 10 -26 15 -50 15 -68 53 -116 112 -144 84 -39 175 -27 235 29 55 52 66
81 137 348 25 94 44 178 41 185 -8 20 -29 17 -44 -6 -8 -13 -23 -20 -44 -20
-40 0 -593 145 -628 164 -14 8 -30 29 -36 48 -13 37 -39 49 -48 21z m514 -375
c85 -23 157 -43 159 -45 13 -9 -35 -121 -64 -150 -30 -30 -39 -33 -91 -33 -67
0 -126 24 -164 64 -21 23 -25 37 -25 89 0 65 10 117 23 117 4 0 77 -19 162
-42z"/>
<path d="M588 4220 c-189 -34 -310 -106 -364 -215 -82 -170 4 -414 174 -493
112 -51 281 -36 441 38 169 80 236 206 197 373 -33 140 -113 250 -205 282 -55
20 -178 27 -243 15z m292 -178 c70 -35 100 -124 65 -191 -30 -59 -115 -111
-251 -155 -162 -52 -260 -56 -350 -16 -36 15 -49 28 -65 66 -47 105 24 194
207 258 158 55 327 72 394 38z"/>
<path d="M10732 3273 c-90 -142 -113 -200 -113 -288 0 -74 13 -110 54 -153 64
-67 171 -98 253 -72 21 7 87 43 145 81 117 77 159 90 207 65 42 -22 62 -53 62
-99 0 -91 -60 -152 -143 -143 -46 5 -47 5 -62 -31 -8 -20 -14 -37 -13 -38 6
-5 148 -75 152 -75 3 0 26 29 51 64 82 116 126 260 105 345 -26 106 -101 163
-213 164 -71 0 -123 -22 -223 -96 -34 -25 -76 -52 -92 -61 -98 -51 -208 31
-180 133 23 83 78 124 161 120 50 -3 52 -2 58 26 13 60 12 61 -67 99 -42 20
-80 36 -84 36 -4 0 -30 -35 -58 -77z"/>
<path d="M1217 3313 c-4 -3 -7 -17 -7 -29 0 -49 -38 -72 -330 -194 -156 -66
-295 -120 -309 -120 -13 0 -32 7 -41 15 -13 12 -19 12 -32 2 -14 -11 -10 -27
45 -150 64 -144 83 -163 99 -100 8 29 49 73 69 73 5 0 126 54 269 120 144 66
271 122 283 125 15 4 32 -1 49 -14 20 -16 28 -18 41 -8 15 11 10 27 -45 150
-56 125 -72 149 -91 130z"/>
<path d="M1583 2583 c-7 -3 -10 -17 -6 -39 4 -21 1 -40 -8 -51 -14 -17 -525
-358 -553 -369 -17 -7 -66 71 -66 105 0 13 14 43 30 68 35 51 35 55 14 89 -11
16 -23 23 -32 19 -39 -15 -162 -100 -159 -109 4 -10 375 -577 383 -585 5 -6
174 103 174 112 0 5 -9 22 -20 37 l-20 28 -49 -16 c-62 -19 -94 -8 -135 49
-15 22 -27 42 -25 43 12 10 493 324 534 349 49 29 50 29 83 11 23 -12 36 -14
43 -7 8 8 -14 47 -77 138 -48 69 -90 127 -93 129 -3 2 -11 1 -18 -1z"/>
<path d="M10321 2454 c-59 -91 -79 -130 -71 -138 7 -7 16 -7 30 2 40 25 23 34
354 -177 230 -145 269 -178 264 -224 -2 -23 2 -33 13 -35 22 -4 186 245 171
260 -8 8 -18 6 -37 -6 -15 -10 -34 -14 -46 -11 -38 12 -548 355 -560 376 -6
12 -9 32 -6 45 3 19 -8 34 -28 34 -1 0 -39 -57 -84 -126z"/>
<path d="M1984 2039 c-5 -8 -9 -30 -10 -50 0 -29 -42 -108 -198 -372 l-198
-336 52 -61 c29 -33 55 -58 59 -56 20 13 685 286 719 297 32 9 48 9 67 1 25
-12 58 -6 53 9 -2 4 -41 46 -87 94 -53 54 -90 84 -99 80 -9 -3 -11 -11 -6 -23
23 -53 -6 -94 -97 -135 l-57 -25 -93 94 -92 93 34 39 c19 21 47 55 62 76 28
37 53 44 87 26 13 -7 21 -5 30 6 11 12 -2 30 -81 112 -51 53 -103 108 -115
121 -17 18 -23 20 -30 10z m55 -535 c40 -42 70 -78 69 -80 -10 -9 -312 -134
-315 -130 -6 6 159 286 168 286 4 0 39 -34 78 -76z"/>
<path d="M9821 1829 c-56 -62 -100 -117 -98 -123 4 -11 12 -11 68 1 20 4 36
-3 65 -29 30 -25 413 -368 458 -409 12 -11 -28 -55 -66 -75 -36 -19 -65 -17
-115 5 l-41 19 -29 -30 -28 -30 73 -69 c40 -39 77 -69 81 -67 4 2 114 119 244
261 l235 258 -76 71 -76 70 -28 -31 -27 -31 20 -34 c46 -79 43 -121 -14 -175
l-26 -23 -250 226 c-255 231 -265 242 -240 288 10 19 0 37 -22 38 -4 0 -52
-50 -108 -111z"/>
<path d="M9130 1203 c-63 -46 -124 -91 -134 -98 -28 -20 -6 -43 34 -37 21 3
38 -2 52 -14 36 -33 139 -174 147 -202 4 -15 23 -120 41 -234 29 -178 33 -214
23 -250 -9 -33 -9 -46 0 -55 9 -9 33 3 105 58 51 39 91 76 89 82 -2 7 -17 12
-33 13 -47 1 -50 3 -62 30 -7 14 -23 82 -37 152 -14 70 -28 137 -30 150 -3 12
-2 22 3 22 11 0 265 -142 287 -160 12 -10 16 -24 12 -51 -9 -66 8 -62 126 28
61 46 117 88 125 92 24 14 2 41 -34 41 -37 0 -74 17 -307 139 -156 82 -158 84
-216 159 -87 115 -96 139 -66 172 12 13 12 20 2 33 -11 14 -25 6 -127 -70z"/>
<path d="M2560 1029 c-263 -361 -253 -349 -299 -349 -21 0 -44 -6 -50 -14 -9
-11 7 -24 84 -70 52 -31 100 -54 105 -51 13 8 13 42 0 50 -5 3 -10 13 -10 21
0 15 275 417 289 422 4 1 2 -34 -5 -79 -15 -94 -67 -590 -62 -593 2 -2 45 -33
97 -70 82 -58 97 -65 109 -52 13 12 12 17 -1 36 -8 12 -12 31 -9 43 7 29 359
513 391 538 17 14 33 18 51 14 17 -4 31 -1 39 8 10 12 -5 26 -81 81 -95 67
-124 73 -99 20 6 -14 9 -36 5 -47 -4 -11 -57 -91 -119 -176 -61 -86 -129 -182
-150 -213 -21 -32 -40 -58 -43 -58 -2 0 -2 19 2 43 3 23 17 164 31 312 14 149
27 288 30 311 6 40 5 42 -49 83 -30 22 -59 41 -64 41 -5 0 -92 -113 -192 -251z"/>
<path d="M5555 861 c-85 -22 -152 -77 -182 -149 -38 -91 -37 -214 3 -299 57
-120 215 -168 338 -104 l55 30 -6 -32 c-19 -103 -95 -163 -193 -152 -30 4 -65
9 -77 12 -22 5 -23 3 -23 -65 l0 -71 46 -7 c87 -13 197 0 246 29 92 54 154
157 183 305 16 76 16 91 1 198 -9 63 -26 138 -37 165 -25 57 -81 110 -136 128
-48 15 -178 23 -218 12z m179 -149 c67 -60 58 -244 -15 -296 -38 -26 -103 -21
-139 12 -73 66 -57 262 24 298 38 17 103 10 130 -14z"/>
<path d="M6252 847 c-49 -18 -100 -63 -122 -107 -11 -22 -20 -44 -20 -50 0 -6
27 -10 66 -10 59 0 70 3 101 30 27 24 43 30 82 30 60 0 91 -29 98 -92 10 -90
-26 -126 -136 -135 l-71 -6 0 -53 0 -54 65 0 c109 0 155 -37 155 -125 0 -56
-25 -106 -62 -126 -56 -31 -178 1 -213 55 l-16 24 -54 -31 c-30 -18 -55 -35
-55 -40 0 -4 18 -27 41 -52 54 -59 125 -85 228 -86 115 -1 180 21 232 78 100
107 82 290 -34 349 l-30 16 39 21 c57 33 79 78 79 163 0 60 -4 76 -28 112 -42
65 -110 95 -222 99 -55 1 -103 -2 -123 -10z"/>
<path d="M4949 814 c-28 -30 -93 -63 -126 -64 -21 0 -23 -5 -23 -50 l0 -50 60
0 60 0 0 -310 0 -310 80 0 80 0 0 405 0 405 -53 0 c-45 0 -57 -4 -78 -26z"/>
<path d="M7059 814 c-28 -30 -93 -63 -126 -64 -21 0 -23 -5 -23 -50 l0 -50 60
0 60 0 0 -310 0 -310 80 0 80 0 0 405 0 405 -53 0 c-45 0 -57 -4 -78 -26z"/>
</g>
</svg>
